<?xml version="1.0" encoding="UTF-8" standalone="no"?>
<!DOCTYPE svg PUBLIC "-//W3C//DTD SVG 1.1//EN"
 "http://www.w3.org/Graphics/SVG/1.1/DTD/svg11.dtd">
<!-- Generated by graphviz version 2.40.1 (20161225.0304)
 -->
<!-- Title: dependencies Pages: 1 -->
<svg width="2311pt" height="284pt"
 viewBox="0.00 0.00 2311.00 284.00" xmlns="http://www.w3.org/2000/svg" xmlns:xlink="http://www.w3.org/1999/xlink">
<g id="graph0" class="graph" transform="scale(1 1) rotate(0) translate(4 280)">
<title>dependencies</title>
<polygon fill="#ffffff" stroke="transparent" points="-4,4 -4,-280 2307,-280 2307,4 -4,4"/>
<text text-anchor="start" x="1130.5091" y="-42.4" font-family="sans-serif" font-weight="bold" font-size="14.00" fill="#000000">Legend</text>
<polygon fill="#ffffb3" stroke="transparent" points="917.5,-10 917.5,-30 937.5,-30 937.5,-10 917.5,-10"/>
<text text-anchor="start" x="941.129" y="-15.4" font-family="sans-serif" font-size="14.00" fill="#000000"> &#160;Declarations</text>
<polygon fill="#8dd3c7" stroke="transparent" points="1030.5,-10 1030.5,-30 1050.5,-30 1050.5,-10 1030.5,-10"/>
<text text-anchor="start" x="1054.2251" y="-15.4" font-family="sans-serif" font-size="14.00" fill="#000000"> &#160;Module</text>
<polygon fill="#80b1d3" stroke="transparent" points="1116.5,-10 1116.5,-30 1136.5,-30 1136.5,-10 1116.5,-10"/>
<text text-anchor="start" x="1140.2812" y="-15.4" font-family="sans-serif" font-size="14.00" fill="#000000"> &#160;Bootstrap</text>
<polygon fill="#fdb462" stroke="transparent" points="1213.5,-10 1213.5,-30 1233.5,-30 1233.5,-10 1213.5,-10"/>
<text text-anchor="start" x="1237.1732" y="-15.4" font-family="sans-serif" font-size="14.00" fill="#000000"> &#160;Providers</text>
<polygon fill="#fb8072" stroke="transparent" points="1309.5,-10 1309.5,-30 1329.5,-30 1329.5,-10 1309.5,-10"/>
<text text-anchor="start" x="1333.2258" y="-15.4" font-family="sans-serif" font-size="14.00" fill="#000000"> &#160;Exports</text>
<g id="clust1" class="cluster">
<title>cluster_AccountModule</title>
<polygon fill="none" stroke="#000000" stroke-dasharray="1,5" points="8,-70 8,-195 614,-195 614,-70 8,-70"/>
</g>
<g id="clust2" class="cluster">
<title>cluster_AccountModule_declarations</title>
<polygon fill="none" stroke="#000000" points="192,-78 192,-130 606,-130 606,-78 192,-78"/>
</g>
<g id="clust6" class="cluster">
<title>cluster_AccountModule_imports</title>
<polygon fill="none" stroke="#000000" points="16,-78 16,-130 184,-130 184,-78 16,-78"/>
</g>
<g id="clust16" class="cluster">
<title>cluster_AppModule</title>
<polygon fill="none" stroke="#000000" stroke-dasharray="1,5" points="622,-70 622,-268 1173,-268 1173,-70 622,-70"/>
</g>
<g id="clust17" class="cluster">
<title>cluster_AppModule_declarations</title>
<polygon fill="none" stroke="#000000" points="782,-78 782,-130 1165,-130 1165,-78 782,-78"/>
</g>
<g id="clust21" class="cluster">
<title>cluster_AppModule_imports</title>
<polygon fill="none" stroke="#000000" points="630,-78 630,-130 774,-130 774,-78 630,-78"/>
</g>
<g id="clust23" class="cluster">
<title>cluster_AppModule_bootstrap</title>
<polygon fill="none" stroke="#000000" points="850,-208 850,-260 974,-260 974,-208 850,-208"/>
</g>
<g id="clust31" class="cluster">
<title>cluster_UsersModule</title>
<polygon fill="none" stroke="#000000" stroke-dasharray="1,5" points="1181,-70 1181,-195 1623,-195 1623,-70 1181,-70"/>
</g>
<g id="clust32" class="cluster">
<title>cluster_UsersModule_declarations</title>
<polygon fill="none" stroke="#000000" points="1349,-78 1349,-130 1615,-130 1615,-78 1349,-78"/>
</g>
<g id="clust35" class="cluster">
<title>cluster_UsersModule_imports</title>
<polygon fill="none" stroke="#000000" points="1189,-78 1189,-130 1341,-130 1341,-78 1189,-78"/>
</g>
<g id="clust45" class="cluster">
<title>cluster_WorkspaceModule</title>
<polygon fill="none" stroke="#000000" stroke-dasharray="1,5" points="1631,-70 1631,-195 2295,-195 2295,-70 1631,-70"/>
</g>
<g id="clust46" class="cluster">
<title>cluster_WorkspaceModule_declarations</title>
<polygon fill="none" stroke="#000000" points="1831,-78 1831,-130 2287,-130 2287,-78 1831,-78"/>
</g>
<g id="clust50" class="cluster">
<title>cluster_WorkspaceModule_imports</title>
<polygon fill="none" stroke="#000000" points="1639,-78 1639,-130 1823,-130 1823,-78 1639,-78"/>
</g>
<!-- LoginComponent -->
<g id="node1" class="node">
<title>LoginComponent</title>
<polygon fill="#ffffb3" stroke="#000000" points="598.2758,-122 483.7242,-122 483.7242,-86 598.2758,-86 598.2758,-122"/>
<text text-anchor="middle" x="541" y="-99.8" font-family="Times,serif" font-size="14.00" fill="#000000">LoginComponent</text>
</g>
<!-- AccountModule -->
<g id="node4" class="node">
<title>AccountModule</title>
<polygon fill="#8dd3c7" stroke="#000000" points="388.4762,-187 385.4762,-191 364.4762,-191 361.4762,-187 281.5238,-187 281.5238,-151 388.4762,-151 388.4762,-187"/>
<text text-anchor="middle" x="335" y="-164.8" font-family="Times,serif" font-size="14.00" fill="#000000">AccountModule</text>
</g>
<!-- LoginComponent&#45;&gt;AccountModule -->
<g id="edge1" class="edge">
<title>LoginComponent&#45;&gt;AccountModule</title>
<path fill="none" stroke="#000000" d="M541,-122.2843C541,-143.3211 541,-175 541,-175 541,-175 398.5863,-175 398.5863,-175"/>
<polygon fill="#000000" stroke="#000000" points="398.5863,-171.5001 388.5863,-175 398.5863,-178.5001 398.5863,-171.5001"/>
</g>
<!-- ProfileComponent -->
<g id="node2" class="node">
<title>ProfileComponent</title>
<polygon fill="#ffffb3" stroke="#000000" points="465.9328,-122 346.0672,-122 346.0672,-86 465.9328,-86 465.9328,-122"/>
<text text-anchor="middle" x="406" y="-99.8" font-family="Times,serif" font-size="14.00" fill="#000000">ProfileComponent</text>
</g>
<!-- ProfileComponent&#45;&gt;AccountModule -->
<g id="edge2" class="edge">
<title>ProfileComponent&#45;&gt;AccountModule</title>
<path fill="none" stroke="#000000" d="M367.3861,-122.1061C367.3861,-122.1061 367.3861,-140.991 367.3861,-140.991"/>
<polygon fill="#000000" stroke="#000000" points="363.8861,-140.9909 367.3861,-150.991 370.8861,-140.991 363.8861,-140.9909"/>
</g>
<!-- RegisterComponent -->
<g id="node3" class="node">
<title>RegisterComponent</title>
<polygon fill="#ffffb3" stroke="#000000" points="327.9846,-122 200.0154,-122 200.0154,-86 327.9846,-86 327.9846,-122"/>
<text text-anchor="middle" x="264" y="-99.8" font-family="Times,serif" font-size="14.00" fill="#000000">RegisterComponent</text>
</g>
<!-- RegisterComponent&#45;&gt;AccountModule -->
<g id="edge3" class="edge">
<title>RegisterComponent&#45;&gt;AccountModule</title>
<path fill="none" stroke="#000000" d="M304.7521,-122.1061C304.7521,-122.1061 304.7521,-140.991 304.7521,-140.991"/>
<polygon fill="#000000" stroke="#000000" points="301.2522,-140.9909 304.7521,-150.991 308.2522,-140.991 301.2522,-140.9909"/>
</g>
<!-- AccountRoutingModule -->
<g id="node5" class="node">
<title>AccountRoutingModule</title>
<polygon fill="#8dd3c7" stroke="#000000" points="176.094,-122 173.094,-126 152.094,-126 149.094,-122 23.906,-122 23.906,-86 176.094,-86 176.094,-122"/>
<text text-anchor="middle" x="100" y="-99.8" font-family="Times,serif" font-size="14.00" fill="#000000">AccountRoutingModule</text>
</g>
<!-- AccountRoutingModule&#45;&gt;AccountModule -->
<g id="edge4" class="edge">
<title>AccountRoutingModule&#45;&gt;AccountModule</title>
<path fill="none" stroke="#000000" d="M100,-122.1061C100,-141.3391 100,-169 100,-169 100,-169 271.3808,-169 271.3808,-169"/>
<polygon fill="#000000" stroke="#000000" points="271.3808,-172.5001 281.3808,-169 271.3808,-165.5001 271.3808,-172.5001"/>
</g>
<!-- AlertComponent -->
<g id="node6" class="node">
<title>AlertComponent</title>
<polygon fill="#ffffb3" stroke="#000000" points="1157.0954,-122 1046.9046,-122 1046.9046,-86 1157.0954,-86 1157.0954,-122"/>
<text text-anchor="middle" x="1102" y="-99.8" font-family="Times,serif" font-size="14.00" fill="#000000">AlertComponent</text>
</g>
<!-- AppModule -->
<g id="node9" class="node">
<title>AppModule</title>
<polygon fill="#8dd3c7" stroke="#000000" points="953.6571,-187 950.6571,-191 929.6571,-191 926.6571,-187 870.3429,-187 870.3429,-151 953.6571,-151 953.6571,-187"/>
<text text-anchor="middle" x="912" y="-164.8" font-family="Times,serif" font-size="14.00" fill="#000000">AppModule</text>
</g>
<!-- AlertComponent&#45;&gt;AppModule -->
<g id="edge5" class="edge">
<title>AlertComponent&#45;&gt;AppModule</title>
<path fill="none" stroke="#000000" d="M1102,-122.0225C1102,-139.3734 1102,-163 1102,-163 1102,-163 963.6963,-163 963.6963,-163"/>
<polygon fill="#000000" stroke="#000000" points="963.6963,-159.5001 953.6963,-163 963.6963,-166.5001 963.6963,-159.5001"/>
</g>
<!-- AppComponent -->
<g id="node7" class="node">
<title>AppComponent</title>
<polygon fill="#ffffb3" stroke="#000000" points="1028.9399,-122 923.0601,-122 923.0601,-86 1028.9399,-86 1028.9399,-122"/>
<text text-anchor="middle" x="976" y="-99.8" font-family="Times,serif" font-size="14.00" fill="#000000">AppComponent</text>
</g>
<!-- AppComponent&#45;&gt;AppModule -->
<g id="edge6" class="edge">
<title>AppComponent&#45;&gt;AppModule</title>
<path fill="none" stroke="#000000" d="M938.5544,-122.1061C938.5544,-122.1061 938.5544,-140.991 938.5544,-140.991"/>
<polygon fill="#000000" stroke="#000000" points="935.0544,-140.9909 938.5544,-150.991 942.0544,-140.991 935.0544,-140.9909"/>
</g>
<!-- HomeComponent -->
<g id="node8" class="node">
<title>HomeComponent</title>
<polygon fill="#ffffb3" stroke="#000000" points="905.5451,-122 790.4549,-122 790.4549,-86 905.5451,-86 905.5451,-122"/>
<text text-anchor="middle" x="848" y="-99.8" font-family="Times,serif" font-size="14.00" fill="#000000">HomeComponent</text>
</g>
<!-- HomeComponent&#45;&gt;AppModule -->
<g id="edge7" class="edge">
<title>HomeComponent&#45;&gt;AppModule</title>
<path fill="none" stroke="#000000" d="M887.972,-122.1061C887.972,-122.1061 887.972,-140.991 887.972,-140.991"/>
<polygon fill="#000000" stroke="#000000" points="884.472,-140.9909 887.972,-150.991 891.472,-140.991 884.472,-140.9909"/>
</g>
<!-- AppComponent  -->
<g id="node11" class="node">
<title>AppComponent </title>
<polygon fill="#80b1d3" stroke="#000000" points="966.439,-252 857.561,-252 857.561,-216 966.439,-216 966.439,-252"/>
<text text-anchor="middle" x="912" y="-229.8" font-family="Times,serif" font-size="14.00" fill="#000000">AppComponent </text>
</g>
<!-- AppModule&#45;&gt;AppComponent  -->
<g id="edge9" class="edge">
<title>AppModule&#45;&gt;AppComponent </title>
<path fill="none" stroke="#000000" stroke-dasharray="1,5" d="M912,-187.1061C912,-187.1061 912,-205.991 912,-205.991"/>
<polygon fill="#000000" stroke="#000000" points="908.5001,-205.9909 912,-215.991 915.5001,-205.991 908.5001,-205.9909"/>
</g>
<!-- AppRoutingModule -->
<g id="node10" class="node">
<title>AppRoutingModule</title>
<polygon fill="#8dd3c7" stroke="#000000" points="766.2744,-122 763.2744,-126 742.2744,-126 739.2744,-122 637.7256,-122 637.7256,-86 766.2744,-86 766.2744,-122"/>
<text text-anchor="middle" x="702" y="-99.8" font-family="Times,serif" font-size="14.00" fill="#000000">AppRoutingModule</text>
</g>
<!-- AppRoutingModule&#45;&gt;AppModule -->
<g id="edge8" class="edge">
<title>AppRoutingModule&#45;&gt;AppModule</title>
<path fill="none" stroke="#000000" d="M702,-122.0225C702,-139.3734 702,-163 702,-163 702,-163 860.2597,-163 860.2597,-163"/>
<polygon fill="#000000" stroke="#000000" points="860.2597,-166.5001 870.2597,-163 860.2596,-159.5001 860.2597,-166.5001"/>
</g>
<!-- AddEditComponent -->
<g id="node12" class="node">
<title>AddEditComponent</title>
<polygon fill="#ffffb3" stroke="#000000" points="1607.273,-122 1478.727,-122 1478.727,-86 1607.273,-86 1607.273,-122"/>
<text text-anchor="middle" x="1543" y="-99.8" font-family="Times,serif" font-size="14.00" fill="#000000">AddEditComponent</text>
</g>
<!-- UsersModule -->
<g id="node14" class="node">
<title>UsersModule</title>
<polygon fill="#8dd3c7" stroke="#000000" points="1454.9218,-187 1451.9218,-191 1430.9218,-191 1427.9218,-187 1363.0782,-187 1363.0782,-151 1454.9218,-151 1454.9218,-187"/>
<text text-anchor="middle" x="1409" y="-164.8" font-family="Times,serif" font-size="14.00" fill="#000000">UsersModule</text>
</g>
<!-- AddEditComponent&#45;&gt;UsersModule -->
<g id="edge10" class="edge">
<title>AddEditComponent&#45;&gt;UsersModule</title>
<path fill="none" stroke="#000000" d="M1543,-122.2843C1543,-143.3211 1543,-175 1543,-175 1543,-175 1464.7404,-175 1464.7404,-175"/>
<polygon fill="#000000" stroke="#000000" points="1464.7404,-171.5001 1454.7404,-175 1464.7404,-178.5001 1464.7404,-171.5001"/>
</g>
<!-- ListComponent -->
<g id="node13" class="node">
<title>ListComponent</title>
<polygon fill="#ffffb3" stroke="#000000" points="1460.6109,-122 1357.3891,-122 1357.3891,-86 1460.6109,-86 1460.6109,-122"/>
<text text-anchor="middle" x="1409" y="-99.8" font-family="Times,serif" font-size="14.00" fill="#000000">ListComponent</text>
</g>
<!-- ListComponent&#45;&gt;UsersModule -->
<g id="edge11" class="edge">
<title>ListComponent&#45;&gt;UsersModule</title>
<path fill="none" stroke="#000000" d="M1409,-122.1061C1409,-122.1061 1409,-140.991 1409,-140.991"/>
<polygon fill="#000000" stroke="#000000" points="1405.5001,-140.9909 1409,-150.991 1412.5001,-140.991 1405.5001,-140.9909"/>
</g>
<!-- UsersRoutingModule -->
<g id="node15" class="node">
<title>UsersRoutingModule</title>
<polygon fill="#8dd3c7" stroke="#000000" points="1333.0394,-122 1330.0394,-126 1309.0394,-126 1306.0394,-122 1196.9606,-122 1196.9606,-86 1333.0394,-86 1333.0394,-122"/>
<text text-anchor="middle" x="1265" y="-99.8" font-family="Times,serif" font-size="14.00" fill="#000000">UsersRoutingModule</text>
</g>
<!-- UsersRoutingModule&#45;&gt;UsersModule -->
<g id="edge12" class="edge">
<title>UsersRoutingModule&#45;&gt;UsersModule</title>
<path fill="none" stroke="#000000" d="M1265,-122.2843C1265,-143.3211 1265,-175 1265,-175 1265,-175 1353.0416,-175 1353.0416,-175"/>
<polygon fill="#000000" stroke="#000000" points="1353.0416,-178.5001 1363.0416,-175 1353.0415,-171.5001 1353.0416,-178.5001"/>
</g>
<!-- EfficiencyComponent -->
<g id="node16" class="node">
<title>EfficiencyComponent</title>
<polygon fill="#ffffb3" stroke="#000000" points="2278.6317,-122 2139.3683,-122 2139.3683,-86 2278.6317,-86 2278.6317,-122"/>
<text text-anchor="middle" x="2209" y="-99.8" font-family="Times,serif" font-size="14.00" fill="#000000">EfficiencyComponent</text>
</g>
<!-- WorkspaceModule -->
<g id="node19" class="node">
<title>WorkspaceModule</title>
<polygon fill="#8dd3c7" stroke="#000000" points="2047.0144,-187 2044.0144,-191 2023.0144,-191 2020.0144,-187 1924.9856,-187 1924.9856,-151 2047.0144,-151 2047.0144,-187"/>
<text text-anchor="middle" x="1986" y="-164.8" font-family="Times,serif" font-size="14.00" fill="#000000">WorkspaceModule</text>
</g>
<!-- EfficiencyComponent&#45;&gt;WorkspaceModule -->
<g id="edge13" class="edge">
<title>EfficiencyComponent&#45;&gt;WorkspaceModule</title>
<path fill="none" stroke="#000000" d="M2209,-122.1061C2209,-141.3391 2209,-169 2209,-169 2209,-169 2057.2307,-169 2057.2307,-169"/>
<polygon fill="#000000" stroke="#000000" points="2057.2307,-165.5001 2047.2307,-169 2057.2307,-172.5001 2057.2307,-165.5001"/>
</g>
<!-- SearchComponent -->
<g id="node17" class="node">
<title>SearchComponent</title>
<polygon fill="#ffffb3" stroke="#000000" points="2120.9201,-122 2001.0799,-122 2001.0799,-86 2120.9201,-86 2120.9201,-122"/>
<text text-anchor="middle" x="2061" y="-99.8" font-family="Times,serif" font-size="14.00" fill="#000000">SearchComponent</text>
</g>
<!-- SearchComponent&#45;&gt;WorkspaceModule -->
<g id="edge14" class="edge">
<title>SearchComponent&#45;&gt;WorkspaceModule</title>
<path fill="none" stroke="#000000" d="M2024.2735,-122.1061C2024.2735,-122.1061 2024.2735,-140.991 2024.2735,-140.991"/>
<polygon fill="#000000" stroke="#000000" points="2020.7736,-140.9909 2024.2735,-150.991 2027.7736,-140.991 2020.7736,-140.9909"/>
</g>
<!-- WorkspaceComponent -->
<g id="node18" class="node">
<title>WorkspaceComponent</title>
<polygon fill="#ffffb3" stroke="#000000" points="1983.2963,-122 1838.7037,-122 1838.7037,-86 1983.2963,-86 1983.2963,-122"/>
<text text-anchor="middle" x="1911" y="-99.8" font-family="Times,serif" font-size="14.00" fill="#000000">WorkspaceComponent</text>
</g>
<!-- WorkspaceComponent&#45;&gt;WorkspaceModule -->
<g id="edge15" class="edge">
<title>WorkspaceComponent&#45;&gt;WorkspaceModule</title>
<path fill="none" stroke="#000000" d="M1953.9457,-122.1061C1953.9457,-122.1061 1953.9457,-140.991 1953.9457,-140.991"/>
<polygon fill="#000000" stroke="#000000" points="1950.4457,-140.9909 1953.9457,-150.991 1957.4457,-140.991 1950.4457,-140.9909"/>
</g>
<!-- WorkspaceRoutingModule -->
<g id="node20" class="node">
<title>WorkspaceRoutingModule</title>
<polygon fill="#8dd3c7" stroke="#000000" points="1814.6316,-122 1811.6316,-126 1790.6316,-126 1787.6316,-122 1647.3684,-122 1647.3684,-86 1814.6316,-86 1814.6316,-122"/>
<text text-anchor="middle" x="1731" y="-99.8" font-family="Times,serif" font-size="14.00" fill="#000000">WorkspaceRoutingModule</text>
</g>
<!-- WorkspaceRoutingModule&#45;&gt;WorkspaceModule -->
<g id="edge16" class="edge">
<title>WorkspaceRoutingModule&#45;&gt;WorkspaceModule</title>
<path fill="none" stroke="#000000" d="M1731,-122.0225C1731,-139.3734 1731,-163 1731,-163 1731,-163 1914.9211,-163 1914.9211,-163"/>
<polygon fill="#000000" stroke="#000000" points="1914.9212,-166.5001 1924.9211,-163 1914.9211,-159.5001 1914.9212,-166.5001"/>
</g>
</g>
</svg>
