<?xml version="1.0" encoding="UTF-8" standalone="no"?>
<!DOCTYPE svg PUBLIC "-//W3C//DTD SVG 1.1//EN"
 "http://www.w3.org/Graphics/SVG/1.1/DTD/svg11.dtd">
<!-- Generated by graphviz version 2.40.1 (20161225.0304)
 -->
<!-- Title: dependencies Pages: 1 -->
<svg width="504pt" height="211pt"
 viewBox="0.00 0.00 504.00 211.00" xmlns="http://www.w3.org/2000/svg" xmlns:xlink="http://www.w3.org/1999/xlink">
<g id="graph0" class="graph" transform="scale(1 1) rotate(0) translate(4 207)">
<title>dependencies</title>
<polygon fill="#ffffff" stroke="transparent" points="-4,4 -4,-207 500,-207 500,4 -4,4"/>
<text text-anchor="start" x="227.0091" y="-42.4" font-family="sans-serif" font-weight="bold" font-size="14.00" fill="#000000">Legend</text>
<polygon fill="#ffffb3" stroke="transparent" points="14,-10 14,-30 34,-30 34,-10 14,-10"/>
<text text-anchor="start" x="37.629" y="-15.4" font-family="sans-serif" font-size="14.00" fill="#000000"> &#160;Declarations</text>
<polygon fill="#8dd3c7" stroke="transparent" points="127,-10 127,-30 147,-30 147,-10 127,-10"/>
<text text-anchor="start" x="150.7251" y="-15.4" font-family="sans-serif" font-size="14.00" fill="#000000"> &#160;Module</text>
<polygon fill="#80b1d3" stroke="transparent" points="213,-10 213,-30 233,-30 233,-10 213,-10"/>
<text text-anchor="start" x="236.7812" y="-15.4" font-family="sans-serif" font-size="14.00" fill="#000000"> &#160;Bootstrap</text>
<polygon fill="#fdb462" stroke="transparent" points="310,-10 310,-30 330,-30 330,-10 310,-10"/>
<text text-anchor="start" x="333.6732" y="-15.4" font-family="sans-serif" font-size="14.00" fill="#000000"> &#160;Providers</text>
<polygon fill="#fb8072" stroke="transparent" points="406,-10 406,-30 426,-30 426,-10 406,-10"/>
<text text-anchor="start" x="429.7258" y="-15.4" font-family="sans-serif" font-size="14.00" fill="#000000"> &#160;Exports</text>
<g id="clust1" class="cluster">
<title>cluster_UsersModule</title>
<polygon fill="none" stroke="#000000" stroke-dasharray="1,5" points="27,-70 27,-195 469,-195 469,-70 27,-70"/>
</g>
<g id="clust2" class="cluster">
<title>cluster_UsersModule_declarations</title>
<polygon fill="none" stroke="#000000" points="195,-78 195,-130 461,-130 461,-78 195,-78"/>
</g>
<g id="clust5" class="cluster">
<title>cluster_UsersModule_imports</title>
<polygon fill="none" stroke="#000000" points="35,-78 35,-130 187,-130 187,-78 35,-78"/>
</g>
<!-- AddEditComponent -->
<g id="node1" class="node">
<title>AddEditComponent</title>
<polygon fill="#ffffb3" stroke="#000000" points="453.273,-122 324.727,-122 324.727,-86 453.273,-86 453.273,-122"/>
<text text-anchor="middle" x="389" y="-99.8" font-family="Times,serif" font-size="14.00" fill="#000000">AddEditComponent</text>
</g>
<!-- UsersModule -->
<g id="node3" class="node">
<title>UsersModule</title>
<polygon fill="#8dd3c7" stroke="#000000" points="300.9218,-187 297.9218,-191 276.9218,-191 273.9218,-187 209.0782,-187 209.0782,-151 300.9218,-151 300.9218,-187"/>
<text text-anchor="middle" x="255" y="-164.8" font-family="Times,serif" font-size="14.00" fill="#000000">UsersModule</text>
</g>
<!-- AddEditComponent&#45;&gt;UsersModule -->
<g id="edge1" class="edge">
<title>AddEditComponent&#45;&gt;UsersModule</title>
<path fill="none" stroke="#000000" d="M389,-122.1061C389,-141.3391 389,-169 389,-169 389,-169 310.7404,-169 310.7404,-169"/>
<polygon fill="#000000" stroke="#000000" points="310.7404,-165.5001 300.7404,-169 310.7404,-172.5001 310.7404,-165.5001"/>
</g>
<!-- ListComponent -->
<g id="node2" class="node">
<title>ListComponent</title>
<polygon fill="#ffffb3" stroke="#000000" points="306.6109,-122 203.3891,-122 203.3891,-86 306.6109,-86 306.6109,-122"/>
<text text-anchor="middle" x="255" y="-99.8" font-family="Times,serif" font-size="14.00" fill="#000000">ListComponent</text>
</g>
<!-- ListComponent&#45;&gt;UsersModule -->
<g id="edge2" class="edge">
<title>ListComponent&#45;&gt;UsersModule</title>
<path fill="none" stroke="#000000" d="M255,-122.1061C255,-122.1061 255,-140.991 255,-140.991"/>
<polygon fill="#000000" stroke="#000000" points="251.5001,-140.9909 255,-150.991 258.5001,-140.991 251.5001,-140.9909"/>
</g>
<!-- UsersRoutingModule -->
<g id="node4" class="node">
<title>UsersRoutingModule</title>
<polygon fill="#8dd3c7" stroke="#000000" points="179.0394,-122 176.0394,-126 155.0394,-126 152.0394,-122 42.9606,-122 42.9606,-86 179.0394,-86 179.0394,-122"/>
<text text-anchor="middle" x="111" y="-99.8" font-family="Times,serif" font-size="14.00" fill="#000000">UsersRoutingModule</text>
</g>
<!-- UsersRoutingModule&#45;&gt;UsersModule -->
<g id="edge3" class="edge">
<title>UsersRoutingModule&#45;&gt;UsersModule</title>
<path fill="none" stroke="#000000" d="M111,-122.1061C111,-141.3391 111,-169 111,-169 111,-169 199.0416,-169 199.0416,-169"/>
<polygon fill="#000000" stroke="#000000" points="199.0416,-172.5001 209.0416,-169 199.0415,-165.5001 199.0416,-172.5001"/>
</g>
</g>
</svg>
