<?xml version="1.0" encoding="UTF-8" standalone="no"?>
<!DOCTYPE svg PUBLIC "-//W3C//DTD SVG 1.1//EN"
 "http://www.w3.org/Graphics/SVG/1.1/DTD/svg11.dtd">
<!-- Generated by graphviz version 2.40.1 (20161225.0304)
 -->
<!-- Title: dependencies Pages: 1 -->
<svg width="688pt" height="211pt"
 viewBox="0.00 0.00 688.00 211.00" xmlns="http://www.w3.org/2000/svg" xmlns:xlink="http://www.w3.org/1999/xlink">
<g id="graph0" class="graph" transform="scale(1 1) rotate(0) translate(4 207)">
<title>dependencies</title>
<polygon fill="#ffffff" stroke="transparent" points="-4,4 -4,-207 684,-207 684,4 -4,4"/>
<text text-anchor="start" x="319.0091" y="-42.4" font-family="sans-serif" font-weight="bold" font-size="14.00" fill="#000000">Legend</text>
<polygon fill="#ffffb3" stroke="transparent" points="106,-10 106,-30 126,-30 126,-10 106,-10"/>
<text text-anchor="start" x="129.629" y="-15.4" font-family="sans-serif" font-size="14.00" fill="#000000"> &#160;Declarations</text>
<polygon fill="#8dd3c7" stroke="transparent" points="219,-10 219,-30 239,-30 239,-10 219,-10"/>
<text text-anchor="start" x="242.7251" y="-15.4" font-family="sans-serif" font-size="14.00" fill="#000000"> &#160;Module</text>
<polygon fill="#80b1d3" stroke="transparent" points="305,-10 305,-30 325,-30 325,-10 305,-10"/>
<text text-anchor="start" x="328.7812" y="-15.4" font-family="sans-serif" font-size="14.00" fill="#000000"> &#160;Bootstrap</text>
<polygon fill="#fdb462" stroke="transparent" points="402,-10 402,-30 422,-30 422,-10 402,-10"/>
<text text-anchor="start" x="425.6732" y="-15.4" font-family="sans-serif" font-size="14.00" fill="#000000"> &#160;Providers</text>
<polygon fill="#fb8072" stroke="transparent" points="498,-10 498,-30 518,-30 518,-10 498,-10"/>
<text text-anchor="start" x="521.7258" y="-15.4" font-family="sans-serif" font-size="14.00" fill="#000000"> &#160;Exports</text>
<g id="clust1" class="cluster">
<title>cluster_WorkspaceModule</title>
<polygon fill="none" stroke="#000000" stroke-dasharray="1,5" points="8,-70 8,-195 672,-195 672,-70 8,-70"/>
</g>
<g id="clust2" class="cluster">
<title>cluster_WorkspaceModule_declarations</title>
<polygon fill="none" stroke="#000000" points="208,-78 208,-130 664,-130 664,-78 208,-78"/>
</g>
<g id="clust6" class="cluster">
<title>cluster_WorkspaceModule_imports</title>
<polygon fill="none" stroke="#000000" points="16,-78 16,-130 200,-130 200,-78 16,-78"/>
</g>
<!-- EfficiencyComponent -->
<g id="node1" class="node">
<title>EfficiencyComponent</title>
<polygon fill="#ffffb3" stroke="#000000" points="655.6317,-122 516.3683,-122 516.3683,-86 655.6317,-86 655.6317,-122"/>
<text text-anchor="middle" x="586" y="-99.8" font-family="Times,serif" font-size="14.00" fill="#000000">EfficiencyComponent</text>
</g>
<!-- WorkspaceModule -->
<g id="node4" class="node">
<title>WorkspaceModule</title>
<polygon fill="#8dd3c7" stroke="#000000" points="424.0144,-187 421.0144,-191 400.0144,-191 397.0144,-187 301.9856,-187 301.9856,-151 424.0144,-151 424.0144,-187"/>
<text text-anchor="middle" x="363" y="-164.8" font-family="Times,serif" font-size="14.00" fill="#000000">WorkspaceModule</text>
</g>
<!-- EfficiencyComponent&#45;&gt;WorkspaceModule -->
<g id="edge1" class="edge">
<title>EfficiencyComponent&#45;&gt;WorkspaceModule</title>
<path fill="none" stroke="#000000" d="M586,-122.1061C586,-141.3391 586,-169 586,-169 586,-169 434.2307,-169 434.2307,-169"/>
<polygon fill="#000000" stroke="#000000" points="434.2307,-165.5001 424.2307,-169 434.2307,-172.5001 434.2307,-165.5001"/>
</g>
<!-- SearchComponent -->
<g id="node2" class="node">
<title>SearchComponent</title>
<polygon fill="#ffffb3" stroke="#000000" points="497.9201,-122 378.0799,-122 378.0799,-86 497.9201,-86 497.9201,-122"/>
<text text-anchor="middle" x="438" y="-99.8" font-family="Times,serif" font-size="14.00" fill="#000000">SearchComponent</text>
</g>
<!-- SearchComponent&#45;&gt;WorkspaceModule -->
<g id="edge2" class="edge">
<title>SearchComponent&#45;&gt;WorkspaceModule</title>
<path fill="none" stroke="#000000" d="M401.2735,-122.1061C401.2735,-122.1061 401.2735,-140.991 401.2735,-140.991"/>
<polygon fill="#000000" stroke="#000000" points="397.7736,-140.9909 401.2735,-150.991 404.7736,-140.991 397.7736,-140.9909"/>
</g>
<!-- WorkspaceComponent -->
<g id="node3" class="node">
<title>WorkspaceComponent</title>
<polygon fill="#ffffb3" stroke="#000000" points="360.2963,-122 215.7037,-122 215.7037,-86 360.2963,-86 360.2963,-122"/>
<text text-anchor="middle" x="288" y="-99.8" font-family="Times,serif" font-size="14.00" fill="#000000">WorkspaceComponent</text>
</g>
<!-- WorkspaceComponent&#45;&gt;WorkspaceModule -->
<g id="edge3" class="edge">
<title>WorkspaceComponent&#45;&gt;WorkspaceModule</title>
<path fill="none" stroke="#000000" d="M330.9457,-122.1061C330.9457,-122.1061 330.9457,-140.991 330.9457,-140.991"/>
<polygon fill="#000000" stroke="#000000" points="327.4457,-140.9909 330.9457,-150.991 334.4457,-140.991 327.4457,-140.9909"/>
</g>
<!-- WorkspaceRoutingModule -->
<g id="node5" class="node">
<title>WorkspaceRoutingModule</title>
<polygon fill="#8dd3c7" stroke="#000000" points="191.6316,-122 188.6316,-126 167.6316,-126 164.6316,-122 24.3684,-122 24.3684,-86 191.6316,-86 191.6316,-122"/>
<text text-anchor="middle" x="108" y="-99.8" font-family="Times,serif" font-size="14.00" fill="#000000">WorkspaceRoutingModule</text>
</g>
<!-- WorkspaceRoutingModule&#45;&gt;WorkspaceModule -->
<g id="edge4" class="edge">
<title>WorkspaceRoutingModule&#45;&gt;WorkspaceModule</title>
<path fill="none" stroke="#000000" d="M108,-122.1061C108,-141.3391 108,-169 108,-169 108,-169 291.9211,-169 291.9211,-169"/>
<polygon fill="#000000" stroke="#000000" points="291.9212,-172.5001 301.9211,-169 291.9211,-165.5001 291.9212,-172.5001"/>
</g>
</g>
</svg>
